# xmcd
#
# Track frame offsets:
#	150
#	16922
#	33818
#	47570
#	63657
#	77452
#	94935
#	109785
#	130007
#	149555
#
# Disc length: 2431 seconds
#
# Revision: 1
# Processed by: cddbd v1.5.2PL0 Copyright (c) Steve Scherf et al.
# Submitted via: audiograbber 1.83.01
#
DISCID=7c097d0a
DTITLE=Paramount Styles - Heaven's Alright
DYEAR=2010
DGENRE=
TTITLE0=Take Care Of Me
TTITLE1=Amsterdam Again
TTITLE2=Give Us Some Time
TTITLE3=The Greatest
TTITLE4=Desire Is Not Enough
TTITLE5=White Palaces
TTITLE6=Steal Your Life
TTITLE7=The Girls Of Prague
TTITLE8=Stay Alive
TTITLE9=Come To Where You Are
EXTD=
EXTT0=
EXTT1=
EXTT2=
EXTT3=
EXTT4=
EXTT5=
EXTT6=
EXTT7=
EXTT8=
EXTT9=
PLAYORDER=
